<svg width="362" height="449" viewBox="0 0 362 449" fill="none" xmlns="http://www.w3.org/2000/svg">
<path fill-rule="evenodd" clip-rule="evenodd" d="M1.98612 444C1.97845 441.239 4.2108 438.994 6.97221 438.986L356.972 438.014C359.734 438.006 361.978 440.239 361.986 443C361.994 445.761 359.761 448.006 357 448.014L6.99999 448.986C4.23857 448.994 1.99379 446.761 1.98612 444Z" fill="#FF0000"/>
<path fill-rule="evenodd" clip-rule="evenodd" d="M7 23C9.76142 23 12 25.2386 12 28L12 419C12 421.761 9.76144 424 7.00002 424C4.23859 424 2.00002 421.761 2.00002 419L2 28C2 25.2386 4.23858 23 7 23Z" fill="#FF0000"/>
<path fill-rule="evenodd" clip-rule="evenodd" d="M24.0899 79.6839C21.9305 77.9628 21.5751 74.817 23.2962 72.6576L67.9123 16.6773C69.6334 14.5178 72.7792 14.1625 74.9387 15.8835C77.0982 17.6046 77.4536 20.7505 75.7325 22.9099L31.1163 78.8902C29.3952 81.0497 26.2494 81.405 24.0899 79.6839Z" fill="#FF0000"/>
<path fill-rule="evenodd" clip-rule="evenodd" d="M249.644 5.00003C249.653 7.76144 247.422 10.0074 244.661 10.0165L5.03296 10.8074C2.27154 10.8165 0.0255975 8.58529 0.0164839 5.82388C0.00737039 3.06247 2.23854 0.816518 4.99996 0.807404L244.628 0.0165558C247.389 0.00744223 249.635 2.23862 249.644 5.00003Z" fill="#FF0000"/>
<path fill-rule="evenodd" clip-rule="evenodd" d="M244.629 104.51C241.868 104.443 239.684 102.152 239.75 99.3913L241.464 27.827C241.53 25.0664 243.822 22.882 246.583 22.9482C249.343 23.0143 251.528 25.3058 251.461 28.0665L249.747 99.6308C249.681 102.391 247.39 104.576 244.629 104.51Z" fill="#FF0000"/>
<path fill-rule="evenodd" clip-rule="evenodd" d="M247 200C267.435 200 284 183.435 284 163C284 142.565 267.435 126 247 126C226.565 126 210 142.565 210 163C210 183.435 226.565 200 247 200ZM247 210C272.957 210 294 188.957 294 163C294 137.043 272.957 116 247 116C221.043 116 200 137.043 200 163C200 188.957 221.043 210 247 210Z" fill="#FF0000"/>
<path fill-rule="evenodd" clip-rule="evenodd" d="M246.276 317.079C243.515 317.021 241.324 314.736 241.382 311.975L243.126 228.877C243.184 226.116 245.469 223.925 248.23 223.983C250.991 224.041 253.182 226.326 253.124 229.087L251.38 312.185C251.322 314.945 249.037 317.136 246.276 317.079Z" fill="#FF0000"/>
<path fill-rule="evenodd" clip-rule="evenodd" d="M264.552 245.069C267.066 243.926 270.03 245.038 271.173 247.552L295.623 301.343C296.766 303.857 295.654 306.821 293.14 307.964C290.627 309.107 287.662 307.995 286.52 305.481L262.069 251.69C260.926 249.176 262.038 246.212 264.552 245.069Z" fill="#FF0000"/>
<path fill-rule="evenodd" clip-rule="evenodd" d="M225.997 245.813C228.28 247.366 228.872 250.476 227.319 252.759L194.08 301.612C192.527 303.895 189.417 304.486 187.134 302.933C184.851 301.38 184.259 298.269 185.813 295.986L219.051 247.134C220.604 244.851 223.714 244.259 225.997 245.813Z" fill="#FF0000"/>
<path fill-rule="evenodd" clip-rule="evenodd" d="M236.012 324.419C238.429 325.755 239.305 328.797 237.969 331.214L209.171 383.305C207.835 385.722 204.793 386.598 202.376 385.262C199.959 383.926 199.083 380.884 200.419 378.467L229.217 326.376C230.553 323.959 233.596 323.083 236.012 324.419Z" fill="#FF0000"/>
<path fill-rule="evenodd" clip-rule="evenodd" d="M257.534 324.108C260.038 322.944 263.012 324.03 264.176 326.534L289.27 380.507C290.435 383.011 289.349 385.985 286.845 387.149C284.341 388.313 281.367 387.227 280.203 384.723L255.108 330.75C253.944 328.246 255.03 325.272 257.534 324.108Z" fill="#FF0000"/>
</svg>
